<?xml version="1.0" encoding="UTF-8" standalone="no"?>
<svg xmlns="http://www.w3.org/2000/svg" width="780" height="980" viewBox="0 0 780 980">
  <defs>
    <style>
      .bg { fill: #0b0c0f; }
      .box { fill: #12141a; stroke: rgba(255,255,255,0.22); stroke-width: 2; rx: 16; ry: 16; }
      .diamond { fill: #12141a; stroke: rgba(255,255,255,0.22); stroke-width: 2; }
      .arrow { stroke: rgba(255,255,255,0.35); stroke-width: 2.2; fill: none; marker-end: url(#arrowhead); }
      .label { fill: rgba(255,255,255,0.92); font-family: -apple-system,BlinkMacSystemFont,Segoe UI,Roboto,Inter,Arial,sans-serif; font-size: 18px; font-weight: 600; }
      .small { fill: rgba(255,255,255,0.78); font-family: -apple-system,BlinkMacSystemFont,Segoe UI,Roboto,Inter,Arial,sans-serif; font-size: 14px; font-weight: 500; }
      .tiny { fill: rgba(255,255,255,0.66); font-family: -apple-system,BlinkMacSystemFont,Segoe UI,Roboto,Inter,Arial,sans-serif; font-size: 12px; font-weight: 700; letter-spacing: 0.03em; }
    </style>
    <marker id="arrowhead" markerWidth="10" markerHeight="7" refX="9" refY="3.5" orient="auto">
      <polygon points="0 0, 10 3.5, 0 7" fill="rgba(255,255,255,0.45)"/>
    </marker>
  </defs>

  <rect class="bg" x="0" y="0" width="780" height="980"/>

  <!-- Title -->
  <rect class="box" x="140" y="36" width="500" height="86"/>
  <text class="label" x="390" y="74" text-anchor="middle">Midgame: Post–Level 6</text>
  <text class="small" x="390" y="100" text-anchor="middle">Track → Pressure → Objective → Reset</text>

  <!-- Enemy path known? -->
  <path class="arrow" d="M390 122 L390 160"/>
  <polygon class="diamond" points="390,180 500,270 390,360 280,270"/>
  <text class="label" x="390" y="265" text-anchor="middle">Enemy Path Known?</text>
  <text class="small" x="390" y="290" text-anchor="middle">Vision / CS / last seen</text>
  <text class="tiny" x="512" y="273">YES</text>
  <text class="tiny" x="245" y="273">NO</text>

  <!-- NO -> Add info -->
  <path class="arrow" d="M280 270 L120 270"/>
  <rect class="box" x="20" y="226" width="220" height="92"/>
  <text class="label" x="130" y="262" text-anchor="middle">Add Information</text>
  <text class="small" x="130" y="287" text-anchor="middle">Deep ward / sweep</text>
  <path class="arrow" d="M240 270 L280 270"/>

  <!-- YES -> On your side? -->
  <path class="arrow" d="M390 360 L390 400"/>
  <polygon class="diamond" points="390,420 500,510 390,600 280,510"/>
  <text class="label" x="390" y="505" text-anchor="middle">On Your Side?</text>
  <text class="small" x="390" y="530" text-anchor="middle">Threatening your lanes?</text>
  <text class="tiny" x="512" y="513">YES</text>
  <text class="tiny" x="245" y="513">NO</text>

  <!-- YES -> Countergank/defend -->
  <path class="arrow" d="M500 510 L660 510"/>
  <rect class="box" x="560" y="462" width="200" height="110"/>
  <text class="label" x="660" y="502" text-anchor="middle">Hover / Countergank</text>
  <text class="small" x="660" y="529" text-anchor="middle">Defend → turn fight</text>
  <text class="small" x="660" y="552" text-anchor="middle">Prep vision 1m early</text>

  <!-- NO -> Invade / Cross-map -->
  <path class="arrow" d="M280 510 L120 510"/>
  <rect class="box" x="20" y="462" width="220" height="110"/>
  <text class="label" x="130" y="502" text-anchor="middle">Invade / Cross-map</text>
  <text class="small" x="130" y="529" text-anchor="middle">Take camps / pressure</text>
  <text class="small" x="130" y="552" text-anchor="middle">Avoid late chase</text>

  <!-- Objective soon? -->
  <path class="arrow" d="M130 572 L130 620 L390 620"/>
  <path class="arrow" d="M660 572 L660 620 L390 620"/>
  <path class="arrow" d="M390 620 L390 650"/>
  <polygon class="diamond" points="390,670 500,760 390,850 280,760"/>
  <text class="label" x="390" y="755" text-anchor="middle">Objective Soon?</text>
  <text class="small" x="390" y="780" text-anchor="middle">Drake / Herald / Baron</text>
  <text class="tiny" x="512" y="763">YES</text>
  <text class="tiny" x="245" y="763">NO</text>

  <!-- NO -> Reset / farm cycle -->
  <path class="arrow" d="M280 760 L160 760 L160 902 L250 902"/>
  <rect class="box" x="250" y="860" width="280" height="84"/>
  <text class="label" x="390" y="894" text-anchor="middle">Reset → Next Cycle</text>
  <text class="small" x="390" y="918" text-anchor="middle">Recall → buy → camps on spawn</text>

  <!-- YES -> Prio + vision? -->
  <path class="arrow" d="M500 760 L640 760"/>
  <polygon class="diamond" points="660,760 735,820 660,880 585,820"/>
  <text class="label" x="660" y="815" text-anchor="middle">Prio + Vision?</text>
  <text class="small" x="660" y="840" text-anchor="middle">Numbers advantage</text>
  <text class="tiny" x="744" y="822">YES</text>
  <text class="tiny" x="558" y="822">NO</text>

  <!-- YES -> Contest -->
  <path class="arrow" d="M735 820 L735 900 L530 900"/>
  <rect class="box" x="530" y="860" width="230" height="84"/>
  <text class="label" x="645" y="894" text-anchor="middle">Contest / Force</text>
  <text class="small" x="645" y="918" text-anchor="middle">Smite ready</text>

  <!-- NO -> Trade -->
  <path class="arrow" d="M585 820 L520 820 L520 902 L530 902"/>
  <rect class="box" x="20" y="860" width="220" height="84"/>
  <text class="label" x="130" y="894" text-anchor="middle">Trade Cross-map</text>
  <text class="small" x="130" y="918" text-anchor="middle">Camps / tower / obj</text>
  <path class="arrow" d="M240 902 L250 902"/>

  <!-- Footer -->
  <text class="tiny" x="390" y="960" text-anchor="middle">Heuristic: If you can’t contest, trade immediately—never let value be free</text>
</svg>
