<?xml version="1.0" encoding="UTF-8" standalone="no"?>
<svg xmlns="http://www.w3.org/2000/svg" width="780" height="1180" viewBox="0 0 780 1180">
  <defs>
    <style>
      .bg { fill: #0b0c0f; }
      .box { fill: #12141a; stroke: rgba(255,255,255,0.22); stroke-width: 2; rx: 16; ry: 16; }
      .diamond { fill: #12141a; stroke: rgba(255,255,255,0.22); stroke-width: 2; }
      .arrow { stroke: rgba(255,255,255,0.35); stroke-width: 2.2; fill: none; marker-end: url(#arrowhead); }
      .label { fill: rgba(255,255,255,0.92); font-family: -apple-system,BlinkMacSystemFont,Segoe UI,Roboto,Inter,Arial,sans-serif; font-size: 18px; font-weight: 600; }
      .small { fill: rgba(255,255,255,0.78); font-family: -apple-system,BlinkMacSystemFont,Segoe UI,Roboto,Inter,Arial,sans-serif; font-size: 14px; font-weight: 500; }
      .tiny { fill: rgba(255,255,255,0.66); font-family: -apple-system,BlinkMacSystemFont,Segoe UI,Roboto,Inter,Arial,sans-serif; font-size: 12px; font-weight: 600; letter-spacing: 0.03em; }
    </style>
    <marker id="arrowhead" markerWidth="10" markerHeight="7" refX="9" refY="3.5" orient="auto">
      <polygon points="0 0, 10 3.5, 0 7" fill="rgba(255,255,255,0.45)"/>
    </marker>
  </defs>

  <rect class="bg" x="0" y="0" width="780" height="1180"/>

  <!-- Top node -->
  <rect class="box" x="140" y="40" width="500" height="86"/>
  <text class="label" x="390" y="78" text-anchor="middle">Early Game: Levels 1–6</text>
  <text class="small" x="390" y="104" text-anchor="middle">Ward → Path → Scuttle → Reset</text>

  <!-- Arrow down -->
  <path class="arrow" d="M390 126 L390 170"/>

  <!-- Diamond: L1 ward done? -->
  <polygon class="diamond" points="390,190 470,260 390,330 310,260"/>
  <text class="label" x="390" y="255" text-anchor="middle">Level 1 Ward?</text>
  <text class="small" x="390" y="280" text-anchor="middle">Enemy buff / pixel</text>

  <!-- YES / NO labels -->
  <text class="tiny" x="482" y="260">YES</text>
  <text class="tiny" x="275" y="260">NO</text>

  <!-- NO branch to ward now -->
  <path class="arrow" d="M310 260 L170 260"/>
  <rect class="box" x="40" y="220" width="250" height="86"/>
  <text class="label" x="165" y="255" text-anchor="middle">Ward Now</text>
  <text class="small" x="165" y="280" text-anchor="middle">Buy time + info</text>

  <!-- Join back to ward decision -->
  <path class="arrow" d="M290 260 L310 260"/>

  <!-- YES branch down -->
  <path class="arrow" d="M390 330 L390 372"/>

  <!-- Diamond: Strong-side prio? -->
  <polygon class="diamond" points="390,392 490,472 390,552 290,472"/>
  <text class="label" x="390" y="465" text-anchor="middle">Strong-side Priority?</text>
  <text class="small" x="390" y="490" text-anchor="middle">Lanes pushing your way</text>
  <text class="tiny" x="505" y="475">YES</text>
  <text class="tiny" x="265" y="475">NO</text>

  <!-- YES branch to 3-camp -->
  <path class="arrow" d="M490 472 L640 472"/>
  <rect class="box" x="560" y="430" width="200" height="96"/>
  <text class="label" x="660" y="465" text-anchor="middle">3-Camp Path</text>
  <text class="small" x="660" y="490" text-anchor="middle">Pressure a lane</text>

  <!-- From 3-camp to setup diamond -->
  <path class="arrow" d="M660 526 L660 566"/>

  <!-- Diamond: Gank setup? -->
  <polygon class="diamond" points="660,586 740,656 660,726 580,656"/>
  <text class="label" x="660" y="650" text-anchor="middle">Gank Setup?</text>
  <text class="small" x="660" y="675" text-anchor="middle">CC + wave + sums</text>
  <text class="tiny" x="748" y="657">YES</text>
  <text class="tiny" x="545" y="657">NO</text>

  <!-- YES -> Gank box -->
  <path class="arrow" d="M740 656 L740 800"/>
  <rect class="box" x="560" y="800" width="200" height="110"/>
  <text class="label" x="660" y="838" text-anchor="middle">Gank</text>
  <text class="small" x="660" y="865" text-anchor="middle">Push wave →</text>
  <text class="small" x="660" y="888" text-anchor="middle">Scuttle / invade</text>

  <!-- NO -> Continue clear box -->
  <path class="arrow" d="M580 656 L520 656 L520 800"/>
  <rect class="box" x="340" y="800" width="200" height="110"/>
  <text class="label" x="440" y="838" text-anchor="middle">Continue Clear</text>
  <text class="small" x="440" y="865" text-anchor="middle">Opposite Scuttle</text>
  <text class="small" x="440" y="888" text-anchor="middle">if contested</text>

  <!-- NO (prio) branch to Full clear -->
  <path class="arrow" d="M290 472 L140 472"/>
  <rect class="box" x="20" y="430" width="240" height="110"/>
  <text class="label" x="140" y="468" text-anchor="middle">Full Clear</text>
  <text class="small" x="140" y="495" text-anchor="middle">All 6 camps</text>
  <text class="small" x="140" y="518" text-anchor="middle">Lvl ~6 at 3:15–3:30</text>

  <!-- From full clear to Obj? -->
  <path class="arrow" d="M140 540 L140 585"/>
  <polygon class="diamond" points="140,605 220,675 140,745 60,675"/>
  <text class="label" x="140" y="670" text-anchor="middle">Scuttle / Obj?</text>
  <text class="small" x="140" y="695" text-anchor="middle">Vision + Smite</text>
  <text class="tiny" x="232" y="678">YES</text>
  <text class="tiny" x="35" y="678">NO</text>

  <!-- YES -> Contest -->
  <path class="arrow" d="M220 675 L340 675"/>
  <rect class="box" x="300" y="620" width="260" height="110"/>
  <text class="label" x="430" y="660" text-anchor="middle">Contest</text>
  <text class="small" x="430" y="687" text-anchor="middle">Prio + vision</text>
  <text class="small" x="430" y="710" text-anchor="middle">Smite ready</text>

  <!-- NO -> Vertical -->
  <path class="arrow" d="M60 675 L20 675 L20 830 L160 830"/>
  <rect class="box" x="160" y="775" width="170" height="110"/>
  <text class="label" x="245" y="815" text-anchor="middle">Vertical</text>
  <text class="small" x="245" y="842" text-anchor="middle">Farm or invade</text>
  <text class="small" x="245" y="865" text-anchor="middle">with info</text>

  <!-- Reset node -->
  <rect class="box" x="220" y="980" width="340" height="96"/>
  <text class="label" x="390" y="1018" text-anchor="middle">Reset → Next Cycle</text>
  <text class="small" x="390" y="1044" text-anchor="middle">Recall → buy → re-enter on tempo</text>

  <!-- Arrows from bottom actions to reset -->
  <path class="arrow" d="M660 910 L660 940 L510 940 L510 980"/>
  <path class="arrow" d="M440 910 L440 980"/>
  <path class="arrow" d="M430 730 L430 980"/>
  <path class="arrow" d="M245 885 L245 940 L300 940 L300 980"/>

  <!-- Footer hint -->
  <text class="tiny" x="390" y="1140" text-anchor="middle">Heuristic: If uncertain, full clear + add vision + re-evaluate</text>
</svg>
